:FULLY-SPECIFIED
:FORCE-ALL-JOINTS-BE-3DOF
:DEGREES
306
root 9.38655 15.5366 -23.6767 32.3611 68.1357 38.5194
lfemur -10.5154 12.493 -19.3302
ltibia 46.2834 0 0
lfoot -15.9158 -12.343 0
ltoes 21.4074 0 0
rfemur -47.8159 -4.57991 10.5968
rtibia 56.1803 0 0
rfoot 13.3022 -18.3689 0
rtoes 40.3693 0 0
lowerback 7.1351 -4.12585 -6.00255
upperback 4.77466 -5.66785 -3.57277
thorax 1.16106 -2.8509 -0.00346479
lowerneck -2.15826 -13.3296 -3.48168
upperneck -0.756208 -17.7508 7.92855
head 1.2018 -8.86958 2.6532
lclavicle -6.25223e-015 1.96763e-014 0
lhumerus -45.7432 -47.9205 108.233
lradius 60.0607 0 0
lwrist 14.9476 0 0
lhand 18.4725 14.1622 0
lfingers 7.12502 0 0
lthumb 43.1526 38.7522 0
rclavicle -6.25223e-015 1.96763e-014 0
rhumerus -43.6799 16.6944 -85.0533
rradius 76.5034 0 0
rwrist 6.5616 0 0
rhand -36.5573 -15.5512 0
rfingers 7.12502 0 0
rthumb -9.6454 -765.368 0
307
root 9.36258 15.5448 -23.6355 31.2405 67.0455 37.1161
lfemur -10.389 13.0276 -19.0799
ltibia 45.7983 0 0
lfoot -16.122 -10.6949 0
ltoes 18.9508 0 0
rfemur -47.9781 -4.76677 9.79172
rtibia 56.2306 0 0
rfoot 13.3251 -18.4191 0
rtoes 40.307 0 0
lowerback 7.06389 -3.98964 -5.9279
upperback 4.73509 -5.48471 -3.48996
thorax 1.15128 -2.76023 0.0294352
lowerneck -2.20629 -13.3282 -3.2283
upperneck -1.04354 -17.7379 7.92677
head 1.09264 -8.86872 2.62319
lclavicle -7.16399e-015 1.98335e-014 0
lhumerus -46.0479 -48.29 108.664
lradius 60.0565 0 0
lwrist 14.8826 0 0
lhand 18.4606 14.1929 0
lfingers 7.12502 0 0
lthumb 43.1433 38.8041 0
rclavicle -7.16399e-015 1.98335e-014 0
rhumerus -41.7151 16.6002 -83.5004
rradius 76.8573 0 0
rwrist 5.88582 0 0
rhand -36.9745 -16.3353 0
rfingers 7.12502 0 0
rthumb -10.048 -766.14 0
308
root 9.33695 15.5533 -23.593 30.1021 65.9234 35.6831
lfemur -10.2781 13.5717 -18.8249
ltibia 45.3182 0 0
lfoot -16.3288 -9.0335 0
ltoes 16.4853 0 0
rfemur -48.1245 -4.9523 8.98518
rtibia 56.2728 0 0
rfoot 13.3252 -18.4693 0
rtoes 40.2437 0 0
lowerback 6.98972 -3.85134 -5.84857
upperback 4.69297 -5.29864 -3.40351
thorax 1.14039 -2.66808 0.0632321
lowerneck -2.25825 -13.3217 -2.97149
upperneck -1.3313 -17.7183 7.92152
head 0.983324 -8.86451 2.59166
lclavicle -8.08828e-015 1.9982e-014 0
lhumerus -46.3559 -48.6509 109.099
lradius 60.0527 0 0
lwrist 14.8193 0 0
lhand 18.4358 14.2209 0
lfingers 7.12502 0 0
lthumb 43.1217 38.8556 0
rclavicle -8.08828e-015 1.9982e-014 0
rhumerus -39.7388 16.494 -81.9356
rradius 77.2051 0 0
rwrist 5.2099 0 0
rhand -37.3812 -17.1273 0
rfingers 7.12502 0 0
rthumb -10.4405 -766.919 0
309
root 9.30978 15.5622 -23.5493 28.9506 64.7723 34.226
lfemur -10.183 14.1228 -18.5661
ltibia 44.846 0 0
lfoot -16.5354 -7.36535 0
ltoes 14.0201 0 0
rfemur -48.2553 -5.13608 8.18117
rtibia 56.3068 0 0
rfoot 13.3029 -18.5182 0
rtoes 40.1785 0 0
lowerback 6.91307 -3.71137 -5.76485
upperback 4.64858 -5.1102 -3.31385
thorax 1.12847 -2.57474 0.097701
lowerneck -2.31384 -13.3101 -2.7122
upperneck -1.61846 -17.6919 7.91289
head 0.874248 -8.8569 2.55876
lclavicle -9.02145e-015 2.01201e-014 0
lhumerus -46.6655 -49.0016 109.534
lradius 60.0491 0 0
lwrist 14.7581 0 0
lhand 18.3976 14.2459 0
lfingers 7.12502 0 0
lthumb 43.0874 38.9062 0
rclavicle -9.02145e-015 2.01201e-014 0
rhumerus -37.7586 16.377 -80.3659
rradius 77.5457 0 0
rwrist 4.53621 0 0
rhand -37.7758 -17.9241 0
rfingers 7.12502 0 0
rthumb -10.8212 -767.703 0
310
root 9.28115 15.5714 -23.5043 27.7904 63.595 32.7504
lfemur -10.1043 14.6789 -18.3044
ltibia 44.3843 0 0
lfoot -16.7406 -5.69716 0
ltoes 11.564 0 0
rfemur -48.3704 -5.31769 7.38368
rtibia 56.3327 0 0
rfoot 13.2589 -18.5647 0
rtoes 40.1105 0 0
lowerback 6.83438 -3.57015 -5.67703
upperback 4.60223 -4.91996 -3.22138
thorax 1.11562 -2.48048 0.132617
lowerneck -2.37282 -13.2933 -2.45135
upperneck -1.90402 -17.6587 7.90097
head 0.765788 -8.84585 2.52463
lclavicle -9.95987e-015 2.02461e-014 0
lhumerus -46.9752 -49.3404 109.969
lradius 60.0456 0 0
lwrist 14.6994 0 0
lhand 18.3453 14.2674 0
lfingers 7.12502 0 0
lthumb 43.0395 38.9556 0
rclavicle -9.95987e-015 2.02461e-014 0
rhumerus -35.7822 16.2507 -78.7983
rradius 77.8779 0 0
rwrist 3.86713 0 0
rhand -38.1563 -18.7224 0
rfingers 7.12502 0 0
rthumb -11.1884 -768.489 0
311
root 9.25116 15.581 -23.4577 26.626 62.3941 31.2621
lfemur -10.0424 15.2376 -18.0407
ltibia 43.9359 0 0
lfoot -16.9435 -4.03556 0
ltoes 9.12602 0 0
rfemur -48.4699 -5.49673 6.59672
rtibia 56.3506 0 0
rfoot 13.1939 -18.6077 0
rtoes 40.0388 0 0
lowerback 6.75411 -3.4281 -5.58542
upperback 4.55423 -4.72849 -3.12654
thorax 1.10192 -2.38558 0.167754
lowerneck -2.43491 -13.2713 -2.18987
upperneck -2.18695 -17.6186 7.88588
head 0.658324 -8.8313 2.48942
lclavicle -1.08999e-014 2.03583e-014 0
lhumerus -47.2833 -49.6655 110.4
lradius 60.0421 0 0
lwrist 14.6436 0 0
lhand 18.2783 14.2852 0
lfingers 7.12502 0 0
lthumb 42.9777 39.0033 0
rclavicle -1.08999e-014 2.03583e-014 0
rhumerus -33.8171 16.1163 -77.2398
rradius 78.2003 0 0
rwrist 3.20503 0 0
rhand -38.5212 -19.5189 0
rfingers 7.12502 0 0
rthumb -11.5405 -769.273 0
312
root 9.21992 15.5909 -23.4094 25.4619 61.1725 29.7667
lfemur -9.99772 15.7968 -17.776
ltibia 43.5037 0 0
lfoot -17.1431 -2.38722 0
ltoes 6.71517 0 0
rfemur -48.554 -5.67277 5.82429
rtibia 56.3603 0 0
rfoot 13.1083 -18.6459 0
rtoes 39.9624 0 0
lowerback 6.67272 -3.28564 -5.4903
upperback 4.50488 -4.53636 -3.02973
thorax 1.08747 -2.29033 0.202889
lowerneck -2.49984 -13.2439 -1.92868
upperneck -2.46625 -17.5717 7.86769
head 0.552237 -8.81323 2.45326
lclavicle -1.18379e-014 2.04551e-014 0
lhumerus -47.5881 -49.9753 110.824
lradius 60.0384 0 0
lwrist 14.591 0 0
lhand 18.196 14.2989 0
lfingers 7.12502 0 0
lthumb 42.9011 39.049 0
rclavicle -1.18379e-014 2.04551e-014 0
rhumerus -31.8711 15.9752 -75.6975
rradius 78.5117 0 0
rwrist 2.55229 0 0
rhand -38.8686 -20.3105 0
rfingers 7.12502 0 0
rthumb -11.8757 -770.051 0
313
root 9.18752 15.6011 -23.3594 24.3025 59.9329 28.2698
lfemur -9.97066 16.3541 -17.5112
ltibia 43.0903 0 0
lfoot -17.3382 -0.758774 0
ltoes 4.3404 0 0
rfemur -48.6226 -5.8454 5.07039
rtibia 56.3618 0 0
rfoot 13.0029 -18.6782 0
rtoes 39.8804 0 0
lowerback 6.59067 -3.1432 -5.39197
upperback 4.45447 -4.34413 -2.93138
thorax 1.07233 -2.19499 0.237795
lowerneck -2.56735 -13.2111 -1.66871
upperneck -2.74089 -17.5177 7.84651
head 0.447907 -8.79157 2.4163
lclavicle -1.27703e-014 2.05347e-014 0
lhumerus -47.888 -50.2681 111.239
lradius 60.0345 0 0
lwrist 14.542 0 0
lhand 18.0977 14.3081 0
lfingers 7.12502 0 0
lthumb 42.8093 39.0922 0
rclavicle -1.27703e-014 2.05347e-014 0
rhumerus -29.9516 15.8288 -74.1785
rradius 78.8109 0 0
rwrist 1.91128 0 0
rhand -39.1969 -21.0938 0
rfingers 7.12502 0 0
rthumb -12.1925 -770.822 0
